<svg id="Layer_1" data-name="Layer 1" xmlns="http://www.w3.org/2000/svg" viewBox="0 0 85 85"><defs><style>.cls-1{fill:#4cb6ac;}.cls-2{fill:#fff;}</style></defs><title>VOISTON_ICONS</title><path class="cls-1" d="M56.52,48.88H49l-1.54-5.72a1.21,1.21,0,0,0-.85-.87,1.24,1.24,0,0,0-1.52.87l-2.73,10.2L38.73,40a1.22,1.22,0,0,0-2.37,0l-2,8.86H28.48a1.21,1.21,0,0,0-1.24,1.22,1.23,1.23,0,0,0,1.24,1.22h6.84a1.24,1.24,0,0,0,1.23-1l1.09-4.89,3.49,13a1.23,1.23,0,0,0,1.49.86,1.19,1.19,0,0,0,.87-.86l2.75-10.21.61,2.22a1.19,1.19,0,0,0,1.15.91h8.52a1.23,1.23,0,0,0,1.22-1.22A1.21,1.21,0,0,0,56.52,48.88Z"/><path class="cls-2" d="M63.64,23.84H58V22.72A1.23,1.23,0,0,0,56.8,21.5H50.31a8.57,8.57,0,0,0-2.15-3.76,8,8,0,0,0-11.32,0,8.13,8.13,0,0,0-2.11,3.76H28.2A1.23,1.23,0,0,0,27,22.72v1.12H21.36a2,2,0,0,0-2,2.06V67.59a2,2,0,0,0,2,2H63.64a2,2,0,0,0,2-2V25.9A2.05,2.05,0,0,0,63.64,23.84ZM38.57,19.48a5.49,5.49,0,0,1,7.85,0,5.84,5.84,0,0,1,1.32,2H37.27A5.27,5.27,0,0,1,38.57,19.48ZM29.4,25.9V24H55.6v3.87H29.4ZM61.59,65.53H23.4V27.92H27v1.13a1.23,1.23,0,0,0,1.25,1.21H56.8A1.23,1.23,0,0,0,58,29.05V27.92h3.56Z"/></svg>